<svg xmlns="http://www.w3.org/2000/svg" width="512.012" height="478.02" viewBox="0 0 512.012 478.02">
  <g id="chat" transform="translate(0 -16.996)">
    <path id="Path_727" data-name="Path 727" d="M333.2,115.038A175.122,175.122,0,0,0,176.008,17c-97.047,0-176,78.5-176,175A173.12,173.12,0,0,0,16.75,266.79L.3,349.055a15.008,15.008,0,0,0,17.618,17.656L101.2,350.246A172.545,172.545,0,0,0,135.928,362.4c-26.717-126.541,69.2-245.321,197.273-247.359Z" fill="#fff"/>
    <path id="Path_728" data-name="Path 728" d="M495.266,394.79a174.486,174.486,0,0,0,7.511-18.514h-.549c37.448-109.917-41.3-225.441-157.567-231.066,0-.006,0-.012-.005-.018C244.62,140.582,161.508,220.678,161.508,320c0,96.414,78.361,174.857,174.743,175a173.087,173.087,0,0,0,74.568-16.747C502.026,496.278,494.913,495,497.008,495a15.007,15.007,0,0,0,14.709-17.941Z" fill="#fff"/>
  </g>
</svg>
