<svg xmlns="http://www.w3.org/2000/svg" width="100" height="100" viewBox="0 0 668.483 557.049">
  <g id="noun_speaking_2648094" transform="translate(0 -2)">
    <path id="Path_726" data-name="Path 726" d="M668.455,251.908a999.1,999.1,0,0,0-10.417-143.016,111.4,111.4,0,0,0-97.679-93.427,1905.509,1905.509,0,0,0-452.275,0,111.376,111.376,0,0,0-97.64,93.424,995.032,995.032,0,0,0,0,287.575A111.33,111.33,0,0,0,108,489.882a1903.41,1903.41,0,0,0,359.934,8.684,169.072,169.072,0,0,1,82.158,14.353l97.689,44.519a14.148,14.148,0,0,0,20.7-12.536V251.875ZM417.8,336.241H139.268a27.853,27.853,0,1,1,0-55.707H417.8a27.853,27.853,0,1,1,0,55.707ZM529.216,224.828H139.268a27.853,27.853,0,1,1,0-55.707H529.216a27.853,27.853,0,0,1,0,55.707Z" transform="translate(0 0)" fill="#fff"/>
  </g>
</svg>
